<?xml version="1.0" standalone="no"?><!DOCTYPE svg PUBLIC "-//W3C//DTD SVG 1.1//EN" "http://www.w3.org/Graphics/SVG/1.1/DTD/svg11.dtd"><svg t="1702190695057" class="icon" viewBox="0 0 1024 1024" version="1.1" xmlns="http://www.w3.org/2000/svg" p-id="15186" xmlns:xlink="http://www.w3.org/1999/xlink" width="200" height="200"><path d="M960 810.6c0 82.1-67.2 149.3-149.3 149.3H213.4C131.2 960 64 892.8 64 810.6V213.4C64 131.2 131.2 64 213.4 64h597.3C892.8 64 960 131.2 960 213.4v597.2z" fill="#563D7C" p-id="15187"></path><path d="M296 251.2h253.8c46.7 0 84.9 10.3 112.9 32.7 28 22.4 42 54.1 42 97.1 0 26.1-6.5 48.5-19.6 67.2-13.1 18.7-31.7 33.6-55.1 43.9v1.9c32.7 6.5 56.9 22.4 72.8 45.7 16.8 23.3 25.2 53.2 25.2 88.7 0 20.5-3.7 40.1-11.2 56.9-7.5 17.7-18.7 33.6-34.5 45.7-15.9 13.1-35.5 23.3-59.7 30.8-24.3 7.5-53.2 11.2-86.8 11.2H296V251.2z m91.4 218.3h149.3c22.4 0 40.1-6.5 55.1-18.7 14.9-12.1 22.4-30.8 22.4-54.1 0-26.1-6.5-44.8-19.6-56-13.1-10.3-32.7-15.9-56.9-15.9H388.3l-0.9 144.7z m0 229.6h161.5c28 0 49.5-7.5 64.4-21.5s23.3-34.5 23.3-61.6c0-26.1-7.5-45.7-23.3-59.7-15.9-14-37.3-20.5-64.4-20.5H387.4v163.3z" fill="#FFFFFF" p-id="15188"></path></svg>