<?xml version="1.0" standalone="no"?><!DOCTYPE svg PUBLIC "-//W3C//DTD SVG 1.1//EN" "http://www.w3.org/Graphics/SVG/1.1/DTD/svg11.dtd"><svg t="1702220604864" class="icon" viewBox="0 0 1024 1024" version="1.1" xmlns="http://www.w3.org/2000/svg" p-id="3743" xmlns:xlink="http://www.w3.org/1999/xlink" width="200" height="200"><path d="M972.689734 512.129112c0 42.399189-34.359956 76.777202-76.751922 76.777202H128.465545c-42.379325 0-76.739281-34.376208-76.739281-76.777202 0-42.413635 34.359956-76.779008 76.739281-76.779008h767.472267c42.391966 0 76.751922 34.367179 76.751922 76.779008z m-76.751922-127.974043H128.465545c-70.641238 0-127.903618 57.291272-127.903618 127.974043 0 70.67013 57.26238 127.961402 127.903618 127.961402h767.472267c70.650267 0 127.916258-57.291272 127.916258-127.961402 0-70.68277-57.267797-127.974042-127.916258-127.974043zM1023.85407 896.036792c0 70.673742-57.265991 127.963208-127.916258 127.963208H128.465545c-70.641238 0-127.903618-57.291272-127.903618-127.963208 0-70.68277 57.26238-127.972236 127.903618-127.972236h767.472267c70.648461 0 127.916258 57.289466 127.916258 127.972236z m-127.916258-76.788037H128.465545c-42.379325 0-76.739281 34.378013-76.739281 76.786232 0 42.400995 34.359956 76.779008 76.739281 76.779008h767.472267c42.393772 0 76.751922-34.378013 76.751922-76.779008 0-42.408218-34.359956-76.786231-76.751922-76.786232zM153.480705 0c-18.099109 0-25.582168 7.499311-25.582168 25.602031 0 18.093691 7.48306 25.593003 25.582168 25.593003h102.325061c18.093691 0 25.582168-7.499311 25.582168-25.593003 0-18.104526-7.486671-25.602031-25.582168-25.602031H153.480705zM358.116381 0c-18.095497 0-25.582168 7.499311-25.582168 25.602031 0 18.093691 7.486671 25.593003 25.582168 25.593003h102.323256c18.095497 0 25.591197-7.499311 25.591196-25.593003 0-18.104526-7.497506-25.602031-25.591196-25.602031h-102.323256zM562.752057 0c-18.093691 0-25.582168 7.499311-25.582168 25.602031 0 18.093691 7.486671 25.593003 25.582168 25.593003h102.325061c18.097303 0 25.580362-7.499311 25.580363-25.593003 0-18.104526-7.48306-25.602031-25.580363-25.602031h-102.325061zM767.393151 0c-18.097303 0-25.582168 7.499311-25.582169 25.602031 0 18.093691 7.48306 25.593003 25.582169 25.593003h102.319643c18.097303 0 25.582168-7.499311 25.582169-25.593003 0-18.104526-7.484865-25.602031-25.582169-25.602031h-102.319643zM869.712794 255.946279c18.097303 0 25.582168-7.497506 25.582169-25.593003 0-18.10272-7.484865-25.591197-25.582169-25.591197h-102.319643c-18.097303 0-25.582168 7.488477-25.582169 25.591197 0 18.095497 7.48306 25.593003 25.582169 25.593003h102.319643zM665.077118 255.946279c18.097303 0 25.580362-7.497506 25.580363-25.593003 0-18.10272-7.48306-25.591197-25.580363-25.591197h-102.325061c-18.093691 0-25.582168 7.488477-25.582168 25.591197 0 18.095497 7.486671 25.593003 25.582168 25.593003h102.325061zM460.439637 255.946279c18.095497 0 25.591197-7.497506 25.591196-25.593003 0-18.10272-7.497506-25.591197-25.591196-25.591197h-102.323256c-18.095497 0-25.582168 7.488477-25.582168 25.591197 0 18.095497 7.486671 25.593003 25.582168 25.593003h102.323256zM255.805766 255.946279c18.093691 0 25.582168-7.497506 25.582168-25.593003 0-18.10272-7.486671-25.591197-25.582168-25.591197H153.480705c-18.099109 0-25.582168 7.488477-25.582168 25.591197 0 18.095497 7.48306 25.593003 25.582168 25.593003h102.325061zM65.063589 172.011053c-21.508379-30.744829-17.663921-72.533672 9.10463-98.823697 12.900332-12.683641 12.997843-23.278021 0.330454-36.198217-12.681836-12.91839-23.272604-13.005066-36.181966-0.332259-44.609436 43.825737-51.027099 113.479226-15.164752 164.719404 10.375883 14.82527 20.805939 16.667143 35.625792 6.287648 14.821659-10.379495 16.663531-20.825803 6.285842-35.652879zM958.270759 172.011053c21.508379-30.744829 17.665727-72.533672-9.106435-98.823697-12.900332-12.683641-12.996038-23.278021-0.330454-36.198217 12.68003-12.91839 23.281633-13.005066 36.183771-0.332259 44.609436 43.825737 51.019876 113.479226 15.161141 164.719404-10.377689 14.82527-20.802328 16.667143-35.62218 6.287648-14.821659-10.379495-16.663531-20.825803-6.285843-35.652879z" fill="#2c2c2c" p-id="3744"></path></svg>