<?xml version="1.0" standalone="no"?><!DOCTYPE svg PUBLIC "-//W3C//DTD SVG 1.1//EN" "http://www.w3.org/Graphics/SVG/1.1/DTD/svg11.dtd"><svg t="1702276204900" class="icon" viewBox="0 0 1024 1024" version="1.1" xmlns="http://www.w3.org/2000/svg" p-id="4300" xmlns:xlink="http://www.w3.org/1999/xlink" width="200" height="200"><path d="M669.215131 636.860702a30.104144 30.104144 0 0 0-12.64374-40.640595 448.250711 448.250711 0 0 0-71.647864-30.104144 301.041445 301.041445 0 1 0-285.38729 0A425.07052 425.07052 0 0 0 0 965.899001a30.104144 30.104144 0 1 0 60.208289 0c0-199.590478 171.593623-361.249734 382.322635-361.249733a398.879914 398.879914 0 0 1 186.043612 45.758299 30.104144 30.104144 0 0 0 40.640595-13.546865zM201.998809 301.500533a240.833156 240.833156 0 1 1 240.833156 240.833156 240.833156 240.833156 0 0 1-240.833156-240.833156zM1023.540912 990.885441l-90.312434-90.312433a165.873836 165.873836 0 1 0-33.716641 33.114559l90.312433 90.312433z m-331.145589-188.752986a105.364506 105.364506 0 1 1 105.364505 105.364506 105.364506 105.364506 0 0 1-105.364505-105.364506z" fill="#ffffff" p-id="4301"></path></svg>