<?xml version="1.0" standalone="no"?><!DOCTYPE svg PUBLIC "-//W3C//DTD SVG 1.1//EN" "http://www.w3.org/Graphics/SVG/1.1/DTD/svg11.dtd"><svg t="1702621041740" class="icon" viewBox="0 0 1024 1024" version="1.1" xmlns="http://www.w3.org/2000/svg" p-id="1685" xmlns:xlink="http://www.w3.org/1999/xlink" width="200" height="200"><path d="M792.10571852 38.07762963c-2.79134815 0.36408889-5.70405925 0.12136297-8.49540741 0.12136296-46.11792592 0-92.23585185-0.12136297-138.35377778 0.12136296-13.34992592 0-26.57848889 1.69908148-39.3216 6.18951112-22.57351111 7.88859259-36.16616297 23.66577778-41.74885925 46.60337778-2.06317037 8.49540741-2.91271111 17.11217778-2.91271111 25.8503111 0 81.55591111-0.12136297 162.99045925 0.12136295 244.54637037 0 16.74808889 1.09226667 33.49617778 7.52450371 49.5160889 8.37404445 20.75306667 23.9085037 33.01072592 45.26838519 38.47205926 7.64586667 1.94180741 15.53445925 2.66998518 23.42305185 2.66998517h264.57125925c10.07312592 0 20.14625185-0.84954075 30.09801483-2.79134814 29.61256297-5.46133333 49.03063703-25.12213333 54.49197036-54.61333333 0.48545185-2.66998518-0.48545185-6.31087408 3.51952592-7.5245037v-281.56207408c-0.48545185-0.48545185-0.60681482-1.09226667-0.60681481-1.82044445-1.82044445-5.82542222-2.06317037-11.89357037-4.00497777-17.84035555-8.61677037-25.48622222-26.33576297-40.53522963-51.94334815-47.08882963-7.76722963-1.94180741-15.53445925-2.91271111-23.66577778-2.54862222-1.57771852 0.12136297-3.64088889 1.21362963-4.73315555-1.09226667h-108.01303705c-0.48545185 3.15543703-3.2768 2.54862222-5.2186074 2.79134815z m119.78524445 49.39472592c4.85451852 0 9.8304 1.09226667 14.44219258 2.54862223 8.37404445 2.66998518 12.98583703 9.22358518 12.98583704 18.3258074 0 90.7794963 0.12136297 181.55899259-0.12136296 272.3384889 0 13.59265185-10.43721482 21.84533333-25.60758518 21.96669629-46.36065185 0.36408889-92.59994075 0.12136297-138.9605926 0.12136296h-137.14014815c-5.46133333 0-10.43721482-1.57771852-15.41309629-3.2768-10.31585185-3.76225185-11.65084445-12.74311111-11.77220741-21.72397036-0.24272592-45.51111111-0.12136297-91.02222222-0.12136297-136.53333334V113.2013037c0-7.88859259 1.82044445-15.17037037 8.37404445-20.6317037 5.5826963-4.61179259 12.50038518-5.21860741 18.93262222-5.21860741 91.50767408-0.12136297 183.01534815 0 274.40165927 0.12136296z" fill="#2c2c2c" p-id="1686"></path><path d="M791.13481482 36.25718518c-47.93837037 0.12136297-95.87674075 0.12136297-143.69374815 0.12136297-11.40811852 0-22.57351111 1.21362963-33.61754075 3.76225185-14.0781037 3.2768-26.82121482 9.34494815-36.40888889 20.26761482-12.86447408 14.68491852-17.96171852 32.64663703-17.96171851 51.70062221-0.24272592 84.46862222-0.24272592 169.05860741 0 253.52722964 0 11.04402963 0.84954075 22.20942222 3.39816296 33.01072592 3.39816297 14.19946667 9.22358518 27.30666667 20.26761482 37.01570371 14.19946667 12.50038518 31.43300741 18.20444445 50.36562962 18.20444445 89.92995555 0.12136297 179.98127408 0.12136297 269.91122963 0 11.28675555 0 22.69487408-0.60681482 33.61754075-3.6408889 23.05896297-6.5536 40.77795555-19.29671111 48.54518518-43.44794074 2.06317037-6.43223703 2.18453333-13.22856297 4.6117926-19.53943703-3.88361482 1.21362963-3.03407408 4.85451852-3.51952593 7.5245037-5.46133333 29.61256297-24.87940741 49.152-54.49197037 54.61333333-9.95176297 1.82044445-20.02488889 2.79134815-30.09801481 2.79134814h-264.57125927c-7.88859259 0-15.77718518-0.72817778-23.42305185-2.66998517-21.23851852-5.46133333-36.89434075-17.71899259-45.26838518-38.47205926-6.43223703-15.89854815-7.5245037-32.768-7.5245037-49.5160889-0.24272592-81.55591111-0.12136297-162.99045925-0.12136297-244.54637037 0-8.73813333 0.84954075-17.3549037 2.91271111-25.8503111 5.5826963-22.9376 19.17534815-38.71478518 41.74885926-46.60337778 12.74311111-4.49042963 25.97167408-6.06814815 39.3216-6.18951112 46.11792592-0.24272592 92.23585185-0.12136297 138.35377778-0.12136296 2.79134815 0 5.70405925 0.24272592 8.4954074-0.12136296 2.06317037-0.24272592 4.73315555 0.24272592 5.09724445-2.91271111-1.45635555 2.54862222-3.88361482 1.09226667-5.94678518 1.09226666zM36.98536297 388.57386667c2.42725925 15.17037037 6.67496297 29.61256297 17.3549037 41.26340741 13.95674075 15.4130963 32.16118518 21.84533333 52.18607408 21.96669629 91.14358518 0.36408889 182.28717037 0.36408889 273.5521185 0 11.40811852 0 22.9376-1.21362963 34.1029926-4.73315555 29.73392592-9.34494815 47.45291852-33.13208889 47.45291852-64.44373334 0-89.80859259 0-179.49582222 0.12136296-269.30441481 0-7.76722963-0.9709037-15.29173333-2.91271111-22.81623704-7.03905185-27.1853037-29.73392592-47.45291852-57.6474074-51.33653333-4.97588148-0.72817778-9.95176297-1.33499259-15.04900741-1.3349926-2.42725925 0-5.46133333 0.72817778-6.31087408-2.91271111h-108.01303703c-1.57771852 2.54862222-4.00497778 1.09226667-5.94678519 1.09226666-49.88017778 0.12136297-99.76035555-0.24272592-149.64053333 0.24272593-17.96171852 0.12136297-35.43798518 3.15543703-51.21517037 12.98583704-15.17037037 9.46631111-24.02986667 23.18032592-28.76302223 40.04977778-0.9709037 3.2768-0.24272592 6.91768889-2.30589629 9.95176297v282.7757037c3.51952592 1.09226667 2.66998518 4.2477037 3.03407408 6.5536z m47.93837036-280.34844445c0-9.8304 7.5245037-17.71899259 17.59762964-19.78216297 5.33997037-1.09226667 10.67994075-1.21362963 16.01991111-1.21362962h265.78488889c5.21860741 0 10.19448889 0.9709037 15.0490074 2.42725926 9.10222222 2.91271111 13.1072 8.37404445 13.1072 17.71899259v273.67348149c0 9.95176297-4.61179259 16.14127408-14.0781037 19.29671111-4.85451852 1.57771852-9.8304 2.54862222-15.04900742 2.42725925-45.14702222-0.12136297-90.17268148-0.12136297-135.3197037-0.12136296-45.75383703 0-91.38631111 0.12136297-137.14014814-0.12136296-7.64586667 0-15.29173333-1.09226667-20.99579259-7.40314074-3.2768-3.64088889-4.97588148-7.64586667-4.97588149-12.25765926-0.12136297-91.38631111-0.12136297-183.01534815 0-274.64438519z" fill="#2c2c2c" p-id="1687"></path><path d="M35.04355555 385.1757037c0.12136297 10.8013037 3.15543703 20.99579259 7.76722963 30.46210371 12.62174815 25.97167408 35.0738963 37.62251852 62.6232889 37.86524444 90.41540741 0.72817778 180.83081482 0.24272592 271.12485925 0.24272593 11.28675555 0 22.57351111-0.9709037 33.61754075-3.64088889 32.88936297-8.13131852 52.91425185-32.03982222 53.15697777-66.02145186 0.60681482-89.56586667 0.24272592-179.13173333 0.24272593-268.6976 0-5.94678518 0-11.89357037-1.09226667-17.84035555-3.64088889-19.6608-12.98583703-35.68071111-29.36983703-47.33155556-13.34992592-9.46631111-28.5202963-13.34992592-44.78293333-13.83537777-2.79134815-0.12136297-5.94678518 1.45635555-8.37404445-1.09226667 0.84954075 3.64088889 4.00497778 2.91271111 6.31087407 2.91271111 5.09724445 0 10.07312592 0.72817778 15.04900741 1.33499259 27.91348148 3.88361482 50.60835555 24.15122963 57.6474074 51.33653334 1.94180741 7.5245037 2.91271111 15.04900741 2.91271112 22.81623703-0.12136297 89.80859259 0 179.49582222-0.12136297 269.30441482 0 31.19028148-17.71899259 54.97742222-47.45291851 64.44373333-11.16539259 3.51952592-22.69487408 4.73315555-34.1029926 4.73315555-91.14358518 0.24272592-182.28717037 0.36408889-273.55211852 0-20.02488889-0.12136297-38.10797037-6.5536-52.18607407-21.96669628-10.67994075-11.77220741-14.92764445-26.09303703-17.35490371-41.26340742-0.36408889-2.3058963 0.48545185-5.5826963-3.15543703-6.31087407 1.57771852 0.12136297 1.09226667 1.57771852 1.09226666 2.54862222zM123.39579259 961.8925037c2.54862222-0.36408889 5.21860741-0.12136297 7.88859259-0.12136295h250.00770371c10.19448889 0 20.14625185-1.21362963 29.97665186-3.76225186 30.94755555-8.00995555 50.24426667-32.64663703 50.36562962-64.5650963 0.12136297-30.70482963 0-61.53102222 0-92.23585184v-179.6171852c0-39.20023703-25.97167408-68.20598518-65.05054815-72.45368888-13.83537778-1.45635555-27.79211852-2.06317037-41.74885925-2.42725926-41.87022222-0.84954075-83.74044445 0.60681482-125.48930372 1.57771851-40.04977778 0.9709037-80.09955555 0.24272592-120.02797036 0.84954075-13.95674075 0.24272592-27.42802963 3.2768-39.68568889 9.8304-16.50536297 8.73813333-26.57848889 22.45214815-31.19028148 40.53522963-0.84954075 3.39816297-0.12136297 7.88859259-4.49042963 9.70903703v283.98933334c2.42725925 6.67496297 2.66998518 13.83537778 4.73315556 20.75306666 7.16041482 25.12213333 23.54441482 40.41386667 48.30245925 47.21019259 7.88859259 2.18453333 16.01991111 2.79134815 24.15122963 2.54862223 1.69908148 0 4.00497778-1.33499259 5.33997037 1.09226667h2.42725927c0.24272592-2.79134815 2.54862222-2.66998518 4.49042962-2.91271112z m-13.83537777-49.27336295c-14.80628148 0-25.12213333-8.00995555-25.00077037-24.87940742 0.48545185-88.95905185 0.24272592-177.9181037 0.12136296-266.99851851 0-14.32082963 8.49540741-21.9666963 22.20942222-22.45214815 90.53677037-2.91271111 180.95217778-0.60681482 271.48894815-0.9709037 7.76722963 0 16.26263703-0.48545185 23.78714074 3.64088888 6.5536 3.64088889 10.31585185 8.73813333 10.31585185 16.62672593-0.12136297 45.51111111 0 91.02222222 0 136.53333333 0 45.14702222-0.24272592 90.17268148 0.12136296 135.31970371 0.12136297 14.68491852-9.46631111 21.35988148-22.69487408 23.42305185-10.43721482 1.57771852-20.6317037 0-30.94755555-0.12136297-83.13362963-0.24272592-166.26725925-0.12136297-249.40088888-0.12136295z" fill="#2c2c2c" p-id="1688"></path><path d="M125.45896297 963.71294815c82.28408889-0.12136297 164.68954075-0.12136297 246.97362962 0 11.40811852 0 22.69487408-0.24272592 33.98162963-2.54862223 15.17037037-3.03407408 28.88438518-9.46631111 39.44296296-20.75306667 11.77220741-12.62174815 17.59762963-28.39893333 17.59762964-45.63247407 0.24272592-90.17268148 0.12136297-180.46672592 0.12136296-270.6394074 0-7.64586667-0.48545185-15.04900741-2.42725926-22.45214815-6.43223703-24.15122963-20.99579259-40.89931852-44.54020741-50.12290371-16.14127408-6.31087408-33.13208889-6.06814815-49.75881481-6.43223703-28.03484445-0.60681482-56.06968889-1.09226667-84.10453333 0.60681481-23.05896297 1.45635555-46.36065185 0.36408889-69.54097779 1.21362963-33.49617778 1.09226667-67.11371852 0.36408889-100.73125926 0.24272592-7.76722963 0-15.4130963 0.72817778-23.05896295 2.42725927-22.33078518 5.09724445-39.44296297 16.74808889-49.27336297 37.9866074-3.15543703 6.91768889-3.39816297 14.56355555-6.31087408 21.48124445 4.49042963-1.82044445 3.64088889-6.31087408 4.49042963-9.70903704 4.61179259-18.08308148 14.80628148-31.7970963 31.19028148-40.53522963 12.37902222-6.5536 25.72894815-9.58767408 39.68568889-9.8304 40.04977778-0.60681482 79.97819259 0.12136297 120.02797038-0.84954073 41.87022222-0.9709037 83.61908148-2.42725925 125.4893037-1.57771852 13.95674075 0.24272592 27.91348148 0.84954075 41.74885925 2.42725925 39.07887408 4.2477037 64.92918518 33.25345185 65.05054816 72.45368889v179.61718519c0 30.70482963 0.12136297 61.53102222 0 92.23585185-0.24272592 32.03982222-19.41807408 56.55514075-50.36562963 64.56509629-9.8304 2.54862222-19.78216297 3.76225185-29.97665186 3.76225186h-250.0077037c-2.66998518 0-5.21860741-0.12136297-7.88859259 0.12136297-1.94180741 0.24272592-4.2477037 0-4.49042963 2.9127111 1.82044445-2.3058963 4.49042963-0.9709037 6.67496297-0.9709037z" fill="#2c2c2c" p-id="1689"></path><path d="M64.89884445 49.48574815c15.77718518-9.70903703 33.25345185-12.86447408 51.21517037-12.98583704 49.88017778-0.48545185 99.76035555-0.12136297 149.64053333-0.24272593 1.94180741 0 4.36906667 1.45635555 5.94678518-1.09226666-2.06317037 1.21362963-4.36906667 0.60681482-6.5536 0.60681481-54.37060741 0.36408889-108.74121482-0.9709037-163.11182222 0.72817778-22.9376 0.72817778-42.35567408 9.8304-56.43377778 28.64165926-7.64586667 10.19448889-11.04402963 21.84533333-11.77220741 34.34571852 2.18453333-2.91271111 1.45635555-6.5536 2.3058963-9.95176297 4.85451852-16.86945185 13.59265185-30.58346667 28.76302223-40.04977777zM910.07051852 36.25718518c8.00995555-0.36408889 15.89854815 0.60681482 23.66577778 2.54862223 25.48622222 6.5536 43.32657778 21.60260741 51.94334815 47.08882962 1.94180741 5.82542222 2.18453333 12.01493333 4.00497777 17.84035556v-0.48545184c0.48545185-34.10299259-29.61256297-64.5650963-63.95828147-67.11371853-6.79632592-0.48545185-13.59265185 0.60681482-20.38897778-1.09226667 0.9709037 2.54862222 3.15543703 1.33499259 4.73315555 1.21362963zM111.01677037 963.71294815c-8.13131852 0.24272592-16.26263703-0.36408889-24.15122962-2.54862223-24.75804445-6.79632592-41.14204445-22.08805925-48.30245927-47.21019259-1.94180741-6.91768889-2.18453333-14.0781037-4.73315556-20.75306666 1.33499259 6.43223703 0.9709037 13.1072 2.54862223 19.53943703 6.67496297 27.67075555 30.94755555 49.27336297 58.9824 50.97244445 7.03905185 0.48545185 14.0781037-0.72817778 20.9957926 0.9709037-1.33499259-2.3058963-3.64088889-1.09226667-5.33997038-0.9709037z" fill="#2c2c2c" p-id="1690"></path><path d="M628.9938963 700.35531852c-14.92764445 0.24272592-24.75804445 10.07312592-24.75804445 24.27259259V933.12948148c0 14.92764445 10.31585185 24.39395555 25.2434963 24.15122963 15.65582222-0.24272592 25.48622222-8.37404445 25.60758518-23.9085037 0.24272592-69.66234075 0.12136297-139.44604445 0-209.10838519 0-14.56355555-10.19448889-24.15122963-26.09303703-23.9085037zM936.04219259 700.59804445c-12.01493333-2.18453333-28.27757037 5.94678518-28.27757037 22.08805925-0.24272592 35.43798518 0 70.75460741 0 106.1925926v105.58577778c0 1.94180741-0.12136297 4.12634075 0.48545186 5.94678517 4.00497778 11.40811852 17.47626667 19.6608 28.52029629 16.99081483 13.83537778-3.2768 21.72397037-8.73813333 21.84533333-25.97167408 0.24272592-67.35644445 0.12136297-134.71288889 0.12136297-202.06933333-0.12136297-17.47626667-5.5826963-25.60758518-22.69487408-28.76302222zM823.53872592 773.29445925c-3.15543703-11.40811852-15.77718518-20.38897778-26.82121481-18.3258074-15.04900741 2.91271111-23.54441482 8.00995555-23.66577778 25.36485926-0.36408889 49.88017778-0.12136297 99.88171852-0.12136296 149.7618963 0 16.74808889 6.91768889 24.27259259 21.23851852 26.94257777 13.47128889 2.54862222 29.61256297-5.46133333 29.73392593-23.18032593v-77.06548147-78.27911111c0-1.57771852 0-3.51952592-0.3640889-5.21860742zM789.92118518 551.80705185c-10.55857778 2.3058963-16.99081482 12.37902222-16.99081481 24.02986667V683.12177778c0 15.89854815 4.85451852 25.48622222 21.9666963 28.76302222 12.50038518 2.3058963 29.12711111-6.31087408 29.00574815-22.45214815-0.12136297-19.17534815 0-38.3506963 0-57.6474074 0-18.56853333-0.24272592-37.13706667 0-55.82696297 0.36408889-23.05896297-17.71899259-27.67075555-33.98162964-24.15122963zM645.49925925 554.96248889c-5.94678518-4.12634075-12.25765925-4.00497778-18.68989628-4.00497778-12.74311111 0-22.45214815 9.58767408-22.45214815 22.20942222v31.55437037c0 10.92266667-0.12136297 21.84533333 0 32.768 0.12136297 5.5826963 1.57771852 10.55857778 5.94678518 14.92764445 6.31087408 6.31087408 13.59265185 8.13131852 22.08805925 7.8885926 12.01493333-0.36408889 22.81623703-10.8013037 22.81623705-22.69487408 0.12136297-21.48124445 0.24272592-42.84112592-0.12136297-64.32237037 0-7.40314075-2.91271111-13.71401482-9.58767408-18.32580741zM956.55253333 565.27834075c-2.66998518-7.5245037-11.89357037-14.32082963-21.72397036-14.56355557-17.3549037-0.60681482-28.64165925 9.58767408-27.30666667 27.67075557 0.60681482 8.49540741 0.12136297 16.99081482 0.12136295 25.48622222v30.34074073c0 1.82044445 0 3.64088889 0.48545186 5.33997038 3.88361482 12.50038518 15.65582222 18.81125925 29.00574814 16.99081481 13.34992592-1.94180741 21.11715555-10.19448889 21.3598815-23.90850371 0.36408889-19.17534815 0.12136297-38.47205925 0.12136295-57.6474074 0-3.51952592-0.9709037-6.67496297-2.06317037-9.70903703zM317.81925925 203.49534815c-2.3058963-8.8594963-9.58767408-15.4130963-18.68989628-16.62672593-1.57771852-0.24272592-3.2768-0.48545185-4.85451852-0.48545185-0.72817778 0-1.82044445 0.24272592-2.06317037-0.9709037h-34.95253333c-0.48545185 0.84954075-1.33499259 0.36408889-1.94180742 0.36408888-16.14127408 0-32.28254815-0.12136297-48.42382222 0.12136297-5.82542222 0-11.52948148 1.09226667-16.62672593 4.2477037-4.97588148 3.03407408-7.76722963 7.5245037-9.34494815 12.98583703-0.24272592 1.09226667 0 2.3058963-0.72817778 3.15543705v91.62903703c1.21362963 0.24272592 0.84954075 1.33499259 0.97090372 2.06317037 0.84954075 4.97588148 2.18453333 9.58767408 5.58269628 13.34992593 4.49042963 4.97588148 10.43721482 7.03905185 16.86945186 7.16041482 29.4912 0.12136297 59.10376297 0.12136297 88.59496297 0 3.76225185 0 7.40314075-0.36408889 11.04402962-1.57771853 9.58767408-3.03407408 15.4130963-10.8013037 15.4130963-20.87442962v-87.25997038c0.12136297-2.42725925-0.24272592-4.85451852-0.84954075-7.28177777zM843.9277037 194.1504c-2.3058963-8.8594963-9.58767408-15.4130963-18.68989629-16.62672592-1.57771852-0.24272592-3.2768-0.48545185-4.85451852-0.48545186-0.72817778 0-1.82044445 0.24272592-2.06317037-0.9709037h-34.95253334c-0.48545185 0.84954075-1.33499259 0.36408889-1.9418074 0.36408889-16.14127408 0-32.28254815-0.12136297-48.42382223 0.12136296-5.82542222 0-11.52948148 1.09226667-16.62672592 4.24770371-4.97588148 3.03407408-7.76722963 7.5245037-9.34494815 12.98583703-0.24272592 1.09226667 0 2.3058963-0.72817778 3.15543704v91.62903703c1.21362963 0.24272592 0.84954075 1.33499259 0.97090371 2.06317037 0.84954075 4.97588148 2.18453333 9.58767408 5.58269629 13.34992593 4.49042963 4.97588148 10.43721482 7.03905185 16.86945185 7.16041482 29.4912 0.12136297 59.10376297 0.12136297 88.59496297 0 3.76225185 0 7.40314075-0.36408889 11.04402963-1.57771852 9.58767408-3.03407408 15.4130963-10.8013037 15.4130963-20.87442963v-87.25997037c0.24272592-2.42725925-0.24272592-4.97588148-0.84954075-7.28177778zM317.09108148 711.76343703c-2.3058963-8.8594963-9.58767408-15.4130963-18.6898963-16.62672592-1.57771852-0.24272592-3.2768-0.48545185-4.85451851-0.48545186-0.72817778 0-1.82044445 0.24272592-2.06317037-0.9709037h-34.95253333c-0.48545185 0.84954075-1.33499259 0.36408889-1.94180742 0.3640889-16.14127408 0-32.28254815-0.12136297-48.42382222 0.12136296-5.82542222 0-11.52948148 1.09226667-16.62672592 4.2477037-4.97588148 3.03407408-7.76722963 7.5245037-9.34494816 12.98583704-0.24272592 1.09226667 0 2.3058963-0.72817777 3.15543703v91.62903704c1.21362963 0.24272592 0.84954075 1.33499259 0.9709037 2.06317037 0.84954075 4.97588148 2.18453333 9.58767408 5.5826963 13.34992593 4.49042963 4.97588148 10.43721482 7.03905185 16.86945185 7.16041481 29.4912 0.12136297 59.10376297 0.12136297 88.59496297 0 3.76225185 0 7.40314075-0.36408889 11.04402962-1.57771851 9.58767408-3.03407408 15.4130963-10.8013037 15.4130963-20.87442964v-87.25997036c0.12136297-2.42725925-0.24272592-4.85451852-0.84954074-7.28177779z" fill="#2c2c2c" p-id="1691"></path></svg>