<?xml version="1.0" standalone="no"?><!DOCTYPE svg PUBLIC "-//W3C//DTD SVG 1.1//EN" "http://www.w3.org/Graphics/SVG/1.1/DTD/svg11.dtd"><svg t="1702451443043" class="icon" viewBox="0 0 1024 1024" version="1.1" xmlns="http://www.w3.org/2000/svg" p-id="5711" xmlns:xlink="http://www.w3.org/1999/xlink" width="200" height="200"><path d="M567.296 922.624H142.9504c-5.12 0-10.0352-2.048-13.7216-5.7344-3.6864-3.6864-5.7344-8.6016-5.7344-13.7216V163.84c0-5.12 2.048-10.0352 5.7344-13.7216 3.6864-3.6864 8.6016-5.7344 13.7216-5.7344H206.848c10.6496 0 19.456-8.8064 19.456-19.456s-8.8064-19.456-19.456-19.456H142.9504C110.592 105.472 84.5824 131.4816 84.5824 163.84v739.328c0 32.1536 26.2144 58.368 58.368 58.368H567.296c10.6496 0 19.456-8.8064 19.456-19.456s-8.8064-19.456-19.456-19.456zM675.0208 144.384h71.0656c5.12 0 10.0352 2.048 13.7216 5.7344 3.6864 3.6864 5.7344 8.6016 5.7344 13.7216v350.208c0 10.6496 8.8064 19.456 19.456 19.456s19.456-8.8064 19.456-19.456V163.84c0-32.1536-26.2144-58.368-58.368-58.368h-71.0656c-10.6496 0-19.456 8.8064-19.456 19.456s8.8064 19.456 19.456 19.456zM300.8512 173.4656H587.776c26.8288 0 48.7424-21.7088 48.7424-48.7424 0-26.8288-21.7088-48.7424-48.7424-48.7424H300.8512c-26.8288 0-48.7424 21.7088-48.7424 48.7424 0.2048 27.0336 21.9136 48.7424 48.7424 48.7424z" p-id="5712" fill="#ffffff"></path><path d="M300.8512 115.0976H587.776c5.3248 0 9.8304 4.3008 9.8304 9.6256s-4.3008 9.8304-9.8304 9.8304H300.8512c-5.3248 0-9.8304-4.3008-9.8304-9.8304 0.2048-5.3248 4.5056-9.6256 9.8304-9.6256z" p-id="5713" fill="#ffffff"></path><path d="M684.032 319.488c0-5.12-2.048-10.0352-5.7344-13.7216-3.6864-3.6864-8.6016-5.7344-13.7216-5.7344H217.088c-10.6496 0-19.456 8.8064-19.456 19.456s8.8064 19.456 19.456 19.456h447.488c5.12 0 10.0352-2.048 13.7216-5.7344 3.6864-3.6864 5.7344-8.6016 5.7344-13.7216zM547.84 533.504c0-5.12-2.048-10.0352-5.7344-13.7216-3.6864-3.6864-8.6016-5.7344-13.7216-5.7344H217.088c-10.6496 0-19.456 8.8064-19.456 19.456s8.8064 19.456 19.456 19.456h311.296c5.12 0 10.0352-2.048 13.7216-5.7344 3.6864-3.6864 5.7344-8.6016 5.7344-13.7216zM217.088 728.064c-10.6496 0-19.456 8.8064-19.456 19.456s8.8064 19.456 19.456 19.456h175.104c10.6496 0 19.456-8.8064 19.456-19.456s-8.8064-19.456-19.456-19.456H217.088zM732.9792 540.2624c-111.8208 0-202.3424 90.5216-202.3424 202.3424 0 111.8208 90.5216 202.3424 202.3424 202.3424 111.8208 0 202.3424-90.5216 202.3424-202.3424 0-111.8208-90.5216-202.3424-202.3424-202.3424z m102.8096 159.5392l-109.1584 108.9536c-11.8784 10.8544-29.9008 10.8544-41.7792 0l-54.4768-54.4768c-7.5776-7.5776-7.5776-19.6608 0-27.2384 3.6864-3.6864 8.6016-5.7344 13.7216-5.7344s10.0352 2.048 13.7216 5.7344l48.128 48.9472 102.8096-102.8096c7.3728-7.7824 19.456-7.9872 27.2384-0.8192 3.6864 3.6864 5.7344 8.6016 5.7344 13.7216-0.2048 5.12-2.2528 10.0352-5.9392 13.7216z" p-id="5714" fill="#ffffff"></path></svg>