<?xml version="1.0" standalone="no"?><!DOCTYPE svg PUBLIC "-//W3C//DTD SVG 1.1//EN" "http://www.w3.org/Graphics/SVG/1.1/DTD/svg11.dtd"><svg t="1702185638129" class="icon" viewBox="0 0 1024 1024" version="1.1" xmlns="http://www.w3.org/2000/svg" p-id="4256" xmlns:xlink="http://www.w3.org/1999/xlink" width="200" height="200"><path d="M784.9 925.8H239.1c-77.7 0-140.9-63.2-140.9-140.9V239.1c0-77.7 63.2-140.9 140.9-140.9H512c27.5 0 49.9 22.3 49.9 49.9S539.6 198 512 198H239.1c-22.7 0-41.2 18.5-41.2 41.2v545.7c0 22.7 18.5 41.2 41.2 41.2h545.7c22.7 0 41.2-18.5 41.2-41.2V512c0-27.6 22.3-49.9 49.9-49.9 27.5 0 49.9 22.3 49.9 49.9v272.8c0 77.8-63.3 141-140.9 141z" p-id="4257" fill="#ffffff"></path><path d="M427.6 646.3c-12.8 0-25.5-4.9-35.3-14.6-19.5-19.5-19.5-51 0-70.5L816.5 137c19.5-19.5 51-19.5 70.5 0s19.5 51 0 70.5L462.8 631.7c-9.7 9.7-22.5 14.6-35.2 14.6z" p-id="4258" fill="#ffffff"></path></svg>