<?xml version="1.0" standalone="no"?><!DOCTYPE svg PUBLIC "-//W3C//DTD SVG 1.1//EN" "http://www.w3.org/Graphics/SVG/1.1/DTD/svg11.dtd"><svg t="1702189921418" class="icon" viewBox="0 0 1024 1024" version="1.1" xmlns="http://www.w3.org/2000/svg" p-id="13800" xmlns:xlink="http://www.w3.org/1999/xlink" width="200" height="200"><path d="M273.57 960C157.82 959.97 64 866.12 64.02 750.36c0.01-55.58 22.1-108.88 61.41-148.18l148.32-148.32c16.29-16.29 42.7-16.29 58.99 0l0.3 0.3c16.28 16.28 16.29 42.68 0.02 58.97L184.62 661.79c-51.07 47.07-54.31 126.63-7.24 177.7 47.07 51.07 126.63 54.31 177.7 7.24 2.55-2.35 5.01-4.81 7.36-7.37l148.43-148.15c16.29-16.26 42.66-16.25 58.95 0.01l0.24 0.24c16.32 16.3 16.32 42.74 0 59.04L421.8 898.55A208.245 208.245 0 0 1 273.57 960z m118.24-328.33c-16.23-16.3-16.2-42.67 0.06-58.93L570.12 394.5c16.29-16.29 42.7-16.29 58.99 0l0.31 0.31c16.28 16.28 16.29 42.67 0.03 58.96L451.94 631.66c-16.59 16.63-43.53 16.64-60.13 0.01z m296.64-59.3c-16.16-16.3-16.12-42.59 0.1-58.84L836.8 365c51.14-47 54.49-126.55 7.49-177.69s-126.55-54.49-177.69-7.49a124.79 124.79 0 0 0-7.37 7.36L510.57 335.56c-16.3 16.26-42.69 16.25-58.97-0.03l-0.3-0.3c-16.29-16.29-16.29-42.71 0.01-59l148.31-148.24c80.42-83.26 213.11-85.57 296.37-5.15s85.57 213.11 5.15 296.37c-1.69 1.75-3.4 3.46-5.15 5.15L747.54 572.53c-16.34 16.31-42.83 16.24-59.09-0.16z" p-id="13801" fill="#2c2c2c"></path></svg>